<svg version="1.1" id="Layer_1" xmlns="http://www.w3.org/2000/svg" xmlns:xlink="http://www.w3.org/1999/xlink" x="0px" y="0px"
	 width="100%" viewBox="0 0 1519 1284" enable-background="new 0 0 1519 1284" xml:space="preserve">
<path fill="#28272D" opacity="1.000000" stroke="none" 
	d="
M899.000000,1285.000000 
	C599.333374,1285.000000 300.166779,1285.000000 1.000120,1285.000000 
	C1.000080,857.000122 1.000080,429.000275 1.000040,1.000293 
	C507.333130,1.000195 1013.666260,1.000195 1519.999512,1.000098 
	C1519.999756,428.999725 1519.999756,856.999451 1519.999878,1284.999512 
	C1313.166626,1285.000000 1106.333374,1285.000000 899.000000,1285.000000 
M513.498962,475.483276 
	C508.754547,475.483276 504.010101,475.483276 498.720673,475.483276 
	C498.720673,508.095917 498.720673,539.873840 498.720673,572.579468 
	C497.384583,570.760925 496.679626,569.838135 496.012909,568.888489 
	C475.072235,539.062134 454.149658,509.223083 433.156158,479.434052 
	C432.083099,477.911438 430.436676,475.734558 429.003601,475.692596 
	C418.225647,475.376740 407.434204,475.520447 396.531189,475.520447 
	C396.531189,523.411804 396.531189,570.749023 396.531189,618.138672 
	C406.466583,618.138672 416.034393,618.138672 426.169250,618.138672 
	C426.169250,585.956848 426.169250,554.149902 426.169250,521.333069 
	C427.625702,523.339355 428.412781,524.394592 429.169952,525.470886 
	C448.510773,552.964233 468.182556,580.234558 486.974670,608.098022 
	C492.317841,616.020447 497.763458,619.943176 507.437927,618.687439 
	C514.239319,617.804565 521.247864,618.516785 528.140381,618.516785 
	C528.140381,570.462219 528.140381,523.227173 528.140381,475.483337 
	C523.403137,475.483337 518.946106,475.483337 513.498962,475.483276 
M560.333923,671.877258 
	C560.333923,718.777039 560.333923,765.676880 560.333923,812.843811 
	C584.106567,812.843811 607.085083,812.849365 630.063599,812.834839 
	C632.227539,812.833435 634.430664,812.940735 636.546631,812.586060 
	C640.470703,811.928406 644.474854,811.350098 648.217346,810.070923 
	C679.027344,799.540100 686.604553,763.275452 662.551941,741.799988 
	C660.900818,740.325745 659.131653,738.983887 657.291016,737.476990 
	C668.354248,727.181885 672.605591,714.926147 669.567932,700.558105 
	C666.052002,683.927917 649.211121,670.291077 631.448120,670.008911 
	C608.965332,669.651794 586.473633,669.842896 563.985840,669.872314 
	C562.803711,669.873840 561.622437,670.571655 560.333923,671.877258 
M985.656982,491.852295 
	C956.835999,470.361206 925.889160,467.192352 893.631042,482.576111 
	C843.625854,506.423279 837.734314,571.758850 882.264160,604.567261 
	C909.738220,624.809448 946.987793,626.116150 977.707031,607.915588 
	C1020.212830,582.731628 1024.592041,523.409546 985.656982,491.852295 
M805.449402,573.995667 
	C801.857727,568.224854 798.266052,562.454041 794.586975,556.542725 
	C796.053284,555.732178 797.214111,555.103638 798.362793,554.453674 
	C820.365356,542.004272 826.672241,515.533997 812.333191,494.822876 
	C802.679810,480.879669 788.520935,475.666748 772.186218,475.526398 
	C753.360168,475.364655 734.531677,475.480469 715.704285,475.503937 
	C714.432129,475.505524 713.160156,475.743988 711.789246,475.882233 
	C711.789246,523.449158 711.789246,570.689148 711.789246,618.202759 
	C721.618042,618.202759 731.176758,618.202759 741.029846,618.202759 
	C741.029846,608.409119 741.029846,598.923645 741.029846,589.438171 
	C741.029846,580.019287 741.029846,570.600403 741.029846,561.004944 
	C747.741089,561.004944 753.736511,561.182068 759.713684,560.929016 
	C762.631165,560.805481 764.142090,561.954651 765.597290,564.304993 
	C773.829651,577.601807 782.188843,590.820374 790.557922,604.031982 
	C793.574890,608.794678 795.742371,615.352234 800.109802,617.657898 
	C804.704163,620.083374 811.495483,618.085571 817.274414,618.604675 
	C822.729980,619.094666 822.841553,614.405762 825.059998,611.672363 
	C827.127747,609.124695 826.331238,607.050842 824.741089,604.579956 
	C818.349121,594.647400 812.145630,584.593506 805.449402,573.995667 
M289.535156,503.581451 
	C312.596771,503.581451 335.658386,503.581451 358.645050,503.581451 
	C358.645050,493.758087 358.645050,484.840210 358.645050,475.919708 
	C324.990234,475.919708 291.641846,475.919708 258.376495,475.919708 
	C258.376495,523.600708 258.376495,570.834106 258.376495,618.224487 
	C293.261993,618.224487 327.839294,618.224487 362.640808,618.224487 
	C362.640808,608.992065 362.640808,600.061218 362.640808,590.539185 
	C337.774078,590.539185 313.044586,590.539185 288.190796,590.539185 
	C288.190796,579.768311 288.190796,569.592651 288.190796,559.085693 
	C310.575500,559.085693 332.542053,559.085693 354.565582,559.085693 
	C354.565582,549.682434 354.565582,540.621399 354.565582,531.013855 
	C332.178131,531.013855 310.121521,531.013855 288.555542,531.013855 
	C288.555542,521.560364 288.555542,512.666687 289.535156,503.581451 
M501.797546,741.657104 
	C491.196838,719.081360 480.541779,696.530701 470.061768,673.899109 
	C468.698029,670.954041 467.249023,669.503845 463.779205,669.737244 
	C458.635834,670.083313 453.432251,670.102173 448.291870,669.734924 
	C444.534698,669.466431 442.782745,670.846741 441.229156,674.205688 
	C420.778351,718.421326 400.169342,762.563782 379.605957,806.727417 
	C378.728027,808.612976 377.909424,810.526184 376.878876,812.840332 
	C387.479126,812.840332 397.312592,812.982300 407.133881,812.700317 
	C408.766541,812.653442 411.092926,811.129211 411.824005,809.655396 
	C415.441925,802.361938 418.727692,794.897095 421.917786,787.402039 
	C422.959595,784.954224 424.162445,783.903625 427.016113,783.925903 
	C446.181488,784.075256 465.349030,784.070801 484.514526,783.929626 
	C487.320160,783.908997 488.647675,784.839783 489.711334,787.329773 
	C492.911438,794.821045 496.261169,802.253296 499.786133,809.596497 
	C500.433929,810.945923 502.154358,812.664490 503.416779,812.695312 
	C513.699768,812.946289 523.991638,812.836609 535.110168,812.836609 
	C523.900391,788.932495 512.980835,765.647278 501.797546,741.657104 
M775.838318,779.168945 
	C770.707153,785.067383 763.655945,786.853882 756.463989,786.806213 
	C744.291992,786.725525 734.119324,782.177185 728.345337,770.137329 
	C719.555786,776.571350 711.401001,782.540649 702.150269,789.312256 
	C707.022766,794.290771 710.904358,800.095215 716.306824,803.451904 
	C737.360901,816.533386 759.934570,819.284729 783.043457,809.505737 
	C800.557373,802.094421 811.196228,788.996948 811.134094,769.159363 
	C811.072754,749.581726 798.781372,739.293274 782.143982,732.785950 
	C774.255188,729.700439 766.119263,727.234802 758.286316,724.022766 
	C752.958679,721.838074 747.723083,719.216553 742.890930,716.100891 
	C738.728882,713.417419 738.604126,708.899353 741.165039,705.084778 
	C742.930786,702.454651 745.622314,700.047363 748.442871,698.593750 
	C760.193054,692.538208 774.586670,695.263306 783.644470,704.836975 
	C784.973083,706.241272 786.302917,707.644348 787.742126,709.164062 
	C795.452332,703.108276 802.855042,697.294006 810.247986,691.487427 
	C790.066101,665.066589 751.290955,659.491699 725.101929,678.698669 
	C705.302185,693.219788 698.484680,730.767212 731.395691,745.773254 
	C737.575684,748.591125 744.122925,750.605347 750.506775,752.974060 
	C757.352722,755.514282 764.424744,757.571960 771.001343,760.679749 
	C779.567627,764.727722 780.928528,770.329590 775.838318,779.168945 
M1046.726562,525.499146 
	C1046.726562,556.412354 1046.726562,587.325623 1046.726562,618.232056 
	C1056.860962,618.232056 1066.303101,618.232056 1076.268066,618.232056 
	C1076.268066,599.060120 1076.268066,580.163086 1076.268066,560.903809 
	C1088.268799,560.903809 1099.764648,561.352783 1111.212402,560.801880 
	C1129.859619,559.904480 1143.971069,551.209656 1151.888428,534.044800 
	C1163.616943,508.618073 1143.700806,477.446960 1114.341553,476.107056 
	C1092.241333,475.098450 1070.066650,475.723907 1047.924927,475.645721 
	C1047.658691,475.644775 1047.391479,475.959869 1046.725830,476.377991 
	C1046.725830,492.250122 1046.725830,508.374603 1046.726562,525.499146 
M1286.570068,475.481781 
	C1279.178833,473.954376 1274.879395,477.431061 1270.885132,483.502625 
	C1262.385498,496.422577 1253.058105,508.798248 1244.056152,521.387085 
	C1243.044067,522.802490 1241.943115,524.154358 1240.658936,525.828064 
	C1232.055542,513.785339 1223.872437,502.252380 1215.598267,490.785126 
	C1211.911743,485.675903 1209.024170,478.744965 1203.980225,476.209808 
	C1198.906494,473.659576 1191.578613,475.874298 1185.286987,475.382935 
	C1179.697144,474.946411 1179.862427,479.705292 1177.763428,482.502533 
	C1175.880127,485.012512 1176.255737,487.030029 1178.088135,489.558502 
	C1190.098633,506.132599 1201.286987,523.351440 1214.052856,539.312866 
	C1223.318237,550.897583 1227.441895,562.838867 1226.225220,577.636414 
	C1225.126099,591.005676 1225.993164,604.536560 1225.993164,618.173340 
	C1235.963257,618.173340 1245.524170,618.173340 1255.580566,618.173340 
	C1255.580566,616.039429 1255.580566,614.246216 1255.580566,612.453003 
	C1255.580566,595.462463 1255.421875,578.469116 1255.720825,561.483826 
	C1255.777344,558.271790 1256.955444,554.602905 1258.798706,551.974243 
	C1273.511841,530.991882 1288.534790,510.226776 1303.362427,489.323944 
	C1304.283813,488.025177 1305.118286,485.890778 1304.702026,484.544342 
	C1302.224854,476.531494 1300.552612,475.481598 1292.032349,475.481720 
	C1290.533203,475.481750 1289.034058,475.481781 1286.570068,475.481781 
M676.281006,475.470703 
	C636.983521,475.470703 597.686096,475.470703 558.041992,475.470703 
	C558.041992,484.972626 558.041992,494.034485 558.041992,503.619507 
	C573.789429,503.619507 589.192871,503.619507 604.966187,503.619507 
	C604.966187,542.084534 604.966187,580.028931 604.966187,618.188354 
	C614.912231,618.188354 624.473511,618.188354 634.574219,618.188354 
	C634.574219,579.942993 634.574219,542.033813 634.574219,503.490753 
	C650.658813,503.490753 666.216248,503.490753 681.828674,503.490753 
	C681.828674,493.898254 681.828674,484.946442 681.828674,475.711517 
	C680.162109,475.624420 678.693787,475.547668 676.281006,475.470703 
M287.763092,759.500122 
	C287.763092,729.737732 287.763092,699.975342 287.763092,670.159912 
	C277.556793,670.159912 267.993591,670.159912 258.474792,670.159912 
	C258.474792,717.854797 258.474792,765.210999 258.474792,812.508179 
	C292.109619,812.508179 325.343079,812.508179 358.553314,812.508179 
	C358.553314,803.120117 358.553314,794.074646 358.553314,784.681763 
	C334.890320,784.681763 311.616241,784.681763 287.763092,784.681763 
	C287.763092,776.390991 287.763092,768.445618 287.763092,759.500122 
z"/>
<path fill="#D5D5D7" opacity="1.000000" stroke="none" 
	d="
M513.994019,475.483307 
	C518.946106,475.483337 523.403137,475.483337 528.140381,475.483337 
	C528.140381,523.227173 528.140381,570.462219 528.140381,618.516785 
	C521.247864,618.516785 514.239319,617.804565 507.437927,618.687439 
	C497.763458,619.943176 492.317841,616.020447 486.974670,608.098022 
	C468.182556,580.234558 448.510773,552.964233 429.169952,525.470886 
	C428.412781,524.394592 427.625702,523.339355 426.169250,521.333069 
	C426.169250,554.149902 426.169250,585.956848 426.169250,618.138672 
	C416.034393,618.138672 406.466583,618.138672 396.531189,618.138672 
	C396.531189,570.749023 396.531189,523.411804 396.531189,475.520447 
	C407.434204,475.520447 418.225647,475.376740 429.003601,475.692596 
	C430.436676,475.734558 432.083099,477.911438 433.156158,479.434052 
	C454.149658,509.223083 475.072235,539.062134 496.012909,568.888489 
	C496.679626,569.838135 497.384583,570.760925 498.720673,572.579468 
	C498.720673,539.873840 498.720673,508.095917 498.720673,475.483276 
	C504.010101,475.483276 508.754547,475.483276 513.994019,475.483307 
z"/>
<path fill="#D5D5D7" opacity="1.000000" stroke="none" 
	d="
M560.387329,671.411255 
	C561.622437,670.571655 562.803711,669.873840 563.985840,669.872314 
	C586.473633,669.842896 608.965332,669.651794 631.448120,670.008911 
	C649.211121,670.291077 666.052002,683.927917 669.567932,700.558105 
	C672.605591,714.926147 668.354248,727.181885 657.291016,737.476990 
	C659.131653,738.983887 660.900818,740.325745 662.551941,741.799988 
	C686.604553,763.275452 679.027344,799.540100 648.217346,810.070923 
	C644.474854,811.350098 640.470703,811.928406 636.546631,812.586060 
	C634.430664,812.940735 632.227539,812.833435 630.063599,812.834839 
	C607.085083,812.849365 584.106567,812.843811 560.333923,812.843811 
	C560.333923,765.676880 560.333923,718.777039 560.387329,671.411255 
M589.974365,755.590149 
	C589.974365,765.187622 589.974365,774.785095 589.974365,784.829346 
	C599.961426,784.829346 609.407959,784.921448 618.851501,784.792664 
	C623.990723,784.722595 629.179077,784.649719 634.248108,783.910950 
	C641.262390,782.888733 646.635925,777.078979 647.284729,770.670105 
	C647.988708,763.716248 644.446472,757.902405 637.269592,755.205566 
	C634.384216,754.121338 631.125916,753.638672 628.025635,753.587402 
	C616.713135,753.400269 605.395508,753.474182 594.080566,753.557129 
	C592.736877,753.566956 591.398010,754.238892 589.974365,755.590149 
M596.568726,725.158875 
	C606.865417,725.118591 617.170288,725.313538 627.456177,724.959534 
	C634.917175,724.702698 640.929077,718.842041 641.247253,712.363770 
	C641.584839,705.490417 636.021301,698.502258 628.585754,698.189880 
	C615.876282,697.656006 603.128174,698.042603 590.307007,698.042603 
	C590.307007,707.217773 590.307007,716.071106 590.307007,725.158875 
	C592.296936,725.158875 593.943237,725.158875 596.568726,725.158875 
z"/>
<path fill="#D6D6D8" opacity="1.000000" stroke="none" 
	d="
M985.951294,492.050568 
	C1024.592041,523.409546 1020.212830,582.731628 977.707031,607.915588 
	C946.987793,626.116150 909.738220,624.809448 882.264160,604.567261 
	C837.734314,571.758850 843.625854,506.423279 893.631042,482.576111 
	C925.889160,467.192352 956.835999,470.361206 985.951294,492.050568 
M922.828674,591.919189 
	C930.250610,591.609314 937.937134,592.440369 945.048584,590.791382 
	C975.246155,583.789368 989.878418,551.593018 975.290466,525.381165 
	C963.563965,504.310791 934.546814,495.179565 912.170532,505.518372 
	C890.910095,515.341614 879.929871,535.628479 885.151917,557.096802 
	C889.838928,576.365906 903.541809,586.775085 922.828674,591.919189 
z"/>
<path fill="#D5D5D7" opacity="1.000000" stroke="none" 
	d="
M805.660889,574.290039 
	C812.145630,584.593506 818.349121,594.647400 824.741089,604.579956 
	C826.331238,607.050842 827.127747,609.124695 825.059998,611.672363 
	C822.841553,614.405762 822.729980,619.094666 817.274414,618.604675 
	C811.495483,618.085571 804.704163,620.083374 800.109802,617.657898 
	C795.742371,615.352234 793.574890,608.794678 790.557922,604.031982 
	C782.188843,590.820374 773.829651,577.601807 765.597290,564.304993 
	C764.142090,561.954651 762.631165,560.805481 759.713684,560.929016 
	C753.736511,561.182068 747.741089,561.004944 741.029846,561.004944 
	C741.029846,570.600403 741.029846,580.019287 741.029846,589.438171 
	C741.029846,598.923645 741.029846,608.409119 741.029846,618.202759 
	C731.176758,618.202759 721.618042,618.202759 711.789246,618.202759 
	C711.789246,570.689148 711.789246,523.449158 711.789246,475.882233 
	C713.160156,475.743988 714.432129,475.505524 715.704285,475.503937 
	C734.531677,475.480469 753.360168,475.364655 772.186218,475.526398 
	C788.520935,475.666748 802.679810,480.879669 812.333191,494.822876 
	C826.672241,515.533997 820.365356,542.004272 798.362793,554.453674 
	C797.214111,555.103638 796.053284,555.732178 794.586975,556.542725 
	C798.266052,562.454041 801.857727,568.224854 805.660889,574.290039 
M763.491821,532.997803 
	C768.631409,532.759460 773.876404,533.085205 778.885498,532.148804 
	C786.148071,530.791260 791.091125,524.075256 790.645691,517.480164 
	C790.196594,510.830597 784.468872,504.329987 777.397705,504.038330 
	C765.464478,503.546082 753.496277,503.903290 741.312378,503.903290 
	C741.312378,513.528259 741.312378,523.087158 741.312378,532.997803 
	C748.560364,532.997803 755.527405,532.997803 763.491821,532.997803 
z"/>
<path fill="#D3D3D5" opacity="1.000000" stroke="none" 
	d="
M289.045349,503.677185 
	C288.555542,512.666687 288.555542,521.560364 288.555542,531.013855 
	C310.121521,531.013855 332.178131,531.013855 354.565582,531.013855 
	C354.565582,540.621399 354.565582,549.682434 354.565582,559.085693 
	C332.542053,559.085693 310.575500,559.085693 288.190796,559.085693 
	C288.190796,569.592651 288.190796,579.768311 288.190796,590.539185 
	C313.044586,590.539185 337.774078,590.539185 362.640808,590.539185 
	C362.640808,600.061218 362.640808,608.992065 362.640808,618.224487 
	C327.839294,618.224487 293.261993,618.224487 258.376495,618.224487 
	C258.376495,570.834106 258.376495,523.600708 258.376495,475.919708 
	C291.641846,475.919708 324.990234,475.919708 358.645050,475.919708 
	C358.645050,484.840210 358.645050,493.758087 358.645050,503.581451 
	C335.658386,503.581451 312.596771,503.581451 289.045349,503.677185 
z"/>
<path fill="#D6D6D8" opacity="1.000000" stroke="none" 
	d="
M501.929413,742.009644 
	C512.980835,765.647278 523.900391,788.932495 535.110168,812.836609 
	C523.991638,812.836609 513.699768,812.946289 503.416779,812.695312 
	C502.154358,812.664490 500.433929,810.945923 499.786133,809.596497 
	C496.261169,802.253296 492.911438,794.821045 489.711334,787.329773 
	C488.647675,784.839783 487.320160,783.908997 484.514526,783.929626 
	C465.349030,784.070801 446.181488,784.075256 427.016113,783.925903 
	C424.162445,783.903625 422.959595,784.954224 421.917786,787.402039 
	C418.727692,794.897095 415.441925,802.361938 411.824005,809.655396 
	C411.092926,811.129211 408.766541,812.653442 407.133881,812.700317 
	C397.312592,812.982300 387.479126,812.840332 376.878876,812.840332 
	C377.909424,810.526184 378.728027,808.612976 379.605957,806.727417 
	C400.169342,762.563782 420.778351,718.421326 441.229156,674.205688 
	C442.782745,670.846741 444.534698,669.466431 448.291870,669.734924 
	C453.432251,670.102173 458.635834,670.083313 463.779205,669.737244 
	C467.249023,669.503845 468.698029,670.954041 470.061768,673.899109 
	C480.541779,696.530701 491.196838,719.081360 501.929413,742.009644 
M444.030884,737.517944 
	C441.376801,743.548218 438.722687,749.578430 436.077606,755.588257 
	C449.339264,755.588257 462.163849,755.588257 475.550323,755.588257 
	C468.903198,740.669434 462.506104,726.311829 455.746582,711.140747 
	C451.600494,720.442017 447.952698,728.625549 444.030884,737.517944 
z"/>
<path fill="#D5D5D8" opacity="1.000000" stroke="none" 
	d="
M776.072510,778.875061 
	C780.928528,770.329590 779.567627,764.727722 771.001343,760.679749 
	C764.424744,757.571960 757.352722,755.514282 750.506775,752.974060 
	C744.122925,750.605347 737.575684,748.591125 731.395691,745.773254 
	C698.484680,730.767212 705.302185,693.219788 725.101929,678.698669 
	C751.290955,659.491699 790.066101,665.066589 810.247986,691.487427 
	C802.855042,697.294006 795.452332,703.108276 787.742126,709.164062 
	C786.302917,707.644348 784.973083,706.241272 783.644470,704.836975 
	C774.586670,695.263306 760.193054,692.538208 748.442871,698.593750 
	C745.622314,700.047363 742.930786,702.454651 741.165039,705.084778 
	C738.604126,708.899353 738.728882,713.417419 742.890930,716.100891 
	C747.723083,719.216553 752.958679,721.838074 758.286316,724.022766 
	C766.119263,727.234802 774.255188,729.700439 782.143982,732.785950 
	C798.781372,739.293274 811.072754,749.581726 811.134094,769.159363 
	C811.196228,788.996948 800.557373,802.094421 783.043457,809.505737 
	C759.934570,819.284729 737.360901,816.533386 716.306824,803.451904 
	C710.904358,800.095215 707.022766,794.290771 702.150269,789.312256 
	C711.401001,782.540649 719.555786,776.571350 728.345337,770.137329 
	C734.119324,782.177185 744.291992,786.725525 756.463989,786.806213 
	C763.655945,786.853882 770.707153,785.067383 776.072510,778.875061 
z"/>
<path fill="#D5D5D7" opacity="1.000000" stroke="none" 
	d="
M1046.726196,524.999146 
	C1046.725830,508.374603 1046.725830,492.250122 1046.725830,476.377991 
	C1047.391479,475.959869 1047.658691,475.644775 1047.924927,475.645721 
	C1070.066650,475.723907 1092.241333,475.098450 1114.341553,476.107056 
	C1143.700806,477.446960 1163.616943,508.618073 1151.888428,534.044800 
	C1143.971069,551.209656 1129.859619,559.904480 1111.212402,560.801880 
	C1099.764648,561.352783 1088.268799,560.903809 1076.268066,560.903809 
	C1076.268066,580.163086 1076.268066,599.060120 1076.268066,618.232056 
	C1066.303101,618.232056 1056.860962,618.232056 1046.726562,618.232056 
	C1046.726562,587.325623 1046.726562,556.412354 1046.726196,524.999146 
M1087.514404,503.504761 
	C1083.890869,503.504761 1080.267334,503.504761 1076.430664,503.504761 
	C1076.430664,513.598572 1076.430664,523.143921 1076.430664,532.885437 
	C1088.224121,532.885437 1099.706543,533.217468 1111.159058,532.775085 
	C1119.545654,532.451111 1125.954712,525.433655 1125.800781,517.934875 
	C1125.651489,510.665497 1119.260254,504.281769 1110.981812,503.812103 
	C1103.509155,503.388153 1096.001465,503.582855 1087.514404,503.504761 
z"/>
<path fill="#D4D4D7" opacity="1.000000" stroke="none" 
	d="
M1287.052490,475.481812 
	C1289.034058,475.481781 1290.533203,475.481750 1292.032349,475.481720 
	C1300.552612,475.481598 1302.224854,476.531494 1304.702026,484.544342 
	C1305.118286,485.890778 1304.283813,488.025177 1303.362427,489.323944 
	C1288.534790,510.226776 1273.511841,530.991882 1258.798706,551.974243 
	C1256.955444,554.602905 1255.777344,558.271790 1255.720825,561.483826 
	C1255.421875,578.469116 1255.580566,595.462463 1255.580566,612.453003 
	C1255.580566,614.246216 1255.580566,616.039429 1255.580566,618.173340 
	C1245.524170,618.173340 1235.963257,618.173340 1225.993164,618.173340 
	C1225.993164,604.536560 1225.126099,591.005676 1226.225220,577.636414 
	C1227.441895,562.838867 1223.318237,550.897583 1214.052856,539.312866 
	C1201.286987,523.351440 1190.098633,506.132599 1178.088135,489.558502 
	C1176.255737,487.030029 1175.880127,485.012512 1177.763428,482.502533 
	C1179.862427,479.705292 1179.697144,474.946411 1185.286987,475.382935 
	C1191.578613,475.874298 1198.906494,473.659576 1203.980225,476.209808 
	C1209.024170,478.744965 1211.911743,485.675903 1215.598267,490.785126 
	C1223.872437,502.252380 1232.055542,513.785339 1240.658936,525.828064 
	C1241.943115,524.154358 1243.044067,522.802490 1244.056152,521.387085 
	C1253.058105,508.798248 1262.385498,496.422577 1270.885132,483.502625 
	C1274.879395,477.431061 1279.178833,473.954376 1287.052490,475.481812 
z"/>
<path fill="#D3D3D5" opacity="1.000000" stroke="none" 
	d="
M676.753296,475.470825 
	C678.693787,475.547668 680.162109,475.624420 681.828674,475.711517 
	C681.828674,484.946442 681.828674,493.898254 681.828674,503.490753 
	C666.216248,503.490753 650.658813,503.490753 634.574219,503.490753 
	C634.574219,542.033813 634.574219,579.942993 634.574219,618.188354 
	C624.473511,618.188354 614.912231,618.188354 604.966187,618.188354 
	C604.966187,580.028931 604.966187,542.084534 604.966187,503.619507 
	C589.192871,503.619507 573.789429,503.619507 558.041992,503.619507 
	C558.041992,494.034485 558.041992,484.972626 558.041992,475.470703 
	C597.686096,475.470703 636.983521,475.470703 676.753296,475.470825 
z"/>
<path fill="#D5D5D7" opacity="1.000000" stroke="none" 
	d="
M287.763092,760.000122 
	C287.763092,768.445618 287.763092,776.390991 287.763092,784.681763 
	C311.616241,784.681763 334.890320,784.681763 358.553314,784.681763 
	C358.553314,794.074646 358.553314,803.120117 358.553314,812.508179 
	C325.343079,812.508179 292.109619,812.508179 258.474792,812.508179 
	C258.474792,765.210999 258.474792,717.854797 258.474792,670.159912 
	C267.993591,670.159912 277.556793,670.159912 287.763092,670.159912 
	C287.763092,699.975342 287.763092,729.737732 287.763092,760.000122 
z"/>
<path fill="#2A292F" opacity="1.000000" stroke="none" 
	d="
M590.015625,755.097046 
	C591.398010,754.238892 592.736877,753.566956 594.080566,753.557129 
	C605.395508,753.474182 616.713135,753.400269 628.025635,753.587402 
	C631.125916,753.638672 634.384216,754.121338 637.269592,755.205566 
	C644.446472,757.902405 647.988708,763.716248 647.284729,770.670105 
	C646.635925,777.078979 641.262390,782.888733 634.248108,783.910950 
	C629.179077,784.649719 623.990723,784.722595 618.851501,784.792664 
	C609.407959,784.921448 599.961426,784.829346 589.974365,784.829346 
	C589.974365,774.785095 589.974365,765.187622 590.015625,755.097046 
z"/>
<path fill="#29282E" opacity="1.000000" stroke="none" 
	d="
M596.079102,725.158875 
	C593.943237,725.158875 592.296936,725.158875 590.307007,725.158875 
	C590.307007,716.071106 590.307007,707.217773 590.307007,698.042603 
	C603.128174,698.042603 615.876282,697.656006 628.585754,698.189880 
	C636.021301,698.502258 641.584839,705.490417 641.247253,712.363770 
	C640.929077,718.842041 634.917175,724.702698 627.456177,724.959534 
	C617.170288,725.313538 606.865417,725.118591 596.079102,725.158875 
z"/>
<path fill="#29282E" opacity="1.000000" stroke="none" 
	d="
M922.414429,591.850037 
	C903.541809,586.775085 889.838928,576.365906 885.151917,557.096802 
	C879.929871,535.628479 890.910095,515.341614 912.170532,505.518372 
	C934.546814,495.179565 963.563965,504.310791 975.290466,525.381165 
	C989.878418,551.593018 975.246155,583.789368 945.048584,590.791382 
	C937.937134,592.440369 930.250610,591.609314 922.414429,591.850037 
z"/>
<path fill="#29282E" opacity="1.000000" stroke="none" 
	d="
M762.993164,532.997803 
	C755.527405,532.997803 748.560364,532.997803 741.312378,532.997803 
	C741.312378,523.087158 741.312378,513.528259 741.312378,503.903290 
	C753.496277,503.903290 765.464478,503.546082 777.397705,504.038330 
	C784.468872,504.329987 790.196594,510.830597 790.645691,517.480164 
	C791.091125,524.075256 786.148071,530.791260 778.885498,532.148804 
	C773.876404,533.085205 768.631409,532.759460 762.993164,532.997803 
z"/>
<path fill="#2A292F" opacity="1.000000" stroke="none" 
	d="
M444.167908,737.163452 
	C447.952698,728.625549 451.600494,720.442017 455.746582,711.140747 
	C462.506104,726.311829 468.903198,740.669434 475.550323,755.588257 
	C462.163849,755.588257 449.339264,755.588257 436.077606,755.588257 
	C438.722687,749.578430 441.376801,743.548218 444.167908,737.163452 
z"/>
<path fill="#2A292F" opacity="1.000000" stroke="none" 
	d="
M1088.011719,503.504761 
	C1096.001465,503.582855 1103.509155,503.388153 1110.981812,503.812103 
	C1119.260254,504.281769 1125.651489,510.665497 1125.800781,517.934875 
	C1125.954712,525.433655 1119.545654,532.451111 1111.159058,532.775085 
	C1099.706543,533.217468 1088.224121,532.885437 1076.430664,532.885437 
	C1076.430664,523.143921 1076.430664,513.598572 1076.430664,503.504761 
	C1080.267334,503.504761 1083.890869,503.504761 1088.011719,503.504761 
z"/>
</svg>
